<svg width="24" height="24" viewBox="0 0 24 24" fill="none" xmlns="http://www.w3.org/2000/svg">
<path fill-rule="evenodd" clip-rule="evenodd" d="M10.5282 2.2831C10.9775 2.03015 11.4844 1.89726 12 1.89726C12.5156 1.89726 13.0225 2.03015 13.4718 2.2831C13.9211 2.53606 14.2976 2.90054 14.565 3.34138L14.5679 3.34613L23.0379 17.4861L23.046 17.4999C23.3079 17.9536 23.4465 18.4679 23.448 18.9917C23.4495 19.5156 23.3138 20.0306 23.0543 20.4857C22.7949 20.9408 22.4209 21.3201 21.9694 21.5857C21.518 21.8514 21.0048 21.9942 20.481 21.9999L20.47 22.0001L3.51901 22C2.9952 21.9943 2.48204 21.8514 2.03057 21.5857C1.5791 21.3201 1.20505 20.9408 0.945647 20.4857C0.686244 20.0306 0.550524 19.5156 0.551991 18.9917C0.553458 18.4679 0.69206 17.9536 0.954007 17.4999L0.962131 17.4861L9.43499 3.34137C9.70239 2.90053 10.0789 2.53606 10.5282 2.2831ZM12 8C12.5523 8 13 8.44772 13 9V13C13 13.5523 12.5523 14 12 14C11.4477 14 11 13.5523 11 13V9C11 8.44772 11.4477 8 12 8ZM11 17C11 16.4477 11.4477 16 12 16H12.01C12.5623 16 13.01 16.4477 13.01 17C13.01 17.5523 12.5623 18 12.01 18H12C11.4477 18 11 17.5523 11 17Z" fill="black"/>
</svg>
