<svg width="24" height="24" viewBox="0 0 24 24" fill="none" xmlns="http://www.w3.org/2000/svg">
<path fill-rule="evenodd" clip-rule="evenodd" d="M1 12C1 5.92487 5.92487 1 12 1C18.0751 1 23 5.92487 23 12C23 18.0751 18.0751 23 12 23C5.92487 23 1 18.0751 1 12ZM22.7068 3.29254C23.0975 3.68287 23.0978 4.31603 22.7075 4.70675L12.7075 14.7168C12.52 14.9044 12.2656 15.0099 12.0002 15.01C11.7349 15.0101 11.4805 14.9047 11.2929 14.7171L8.29289 11.7171C7.90237 11.3266 7.90237 10.6934 8.29289 10.3029C8.68342 9.91237 9.31658 9.91237 9.70711 10.3029L11.9996 12.5954L21.2925 3.29325C21.6829 2.90253 22.316 2.90221 22.7068 3.29254Z" fill="black"/>
</svg>
