<svg width="24" height="24" viewBox="0 0 24 24" fill="none" xmlns="http://www.w3.org/2000/svg">
<path fill-rule="evenodd" clip-rule="evenodd" d="M1 12C1 5.92487 5.92487 1 12 1C18.0751 1 23 5.92487 23 12C23 18.0751 18.0751 23 12 23C5.92487 23 1 18.0751 1 12ZM12 11C12.5523 11 13 11.4477 13 12V16C13 16.5523 12.5523 17 12 17C11.4477 17 11 16.5523 11 16V12C11 11.4477 11.4477 11 12 11ZM11 8C11 7.44772 11.4477 7 12 7H12.01C12.5623 7 13.01 7.44772 13.01 8C13.01 8.55228 12.5623 9 12.01 9H12C11.4477 9 11 8.55228 11 8Z" fill="currentColor" stroke="none"/>
</svg>
